<svg xmlns="http://www.w3.org/2000/svg" xmlns:xlink="http://www.w3.org/1999/xlink" viewBox="0 0 1007 197"><style>
@keyframes a0_t { 0% { transform: translate(225px,339.9px) scale(0,1) translate(-89.5px,-24px); } 35% { transform: translate(225px,339.9px) scale(0,1) translate(-89.5px,-24px); animation-timing-function: cubic-bezier(.6,0,.4,1); } 45% { transform: translate(225px,339.9px) scale(1,1) translate(-89.5px,-24px); } 50% { transform: translate(225px,339.9px) scale(1,1) translate(-89.5px,-24px); animation-timing-function: cubic-bezier(.6,0,.4,1); } 60% { transform: translate(225px,339.9px) scale(0,1) translate(-89.5px,-24px); } 100% { transform: translate(225px,339.9px) scale(0,1) translate(-89.5px,-24px); } }
@keyframes a1_t { 0% { transform: translate(225px,348.9px) scale(0,1) translate(-41.5px,-11px); } 20% { transform: translate(225px,348.9px) scale(0,1) translate(-41.5px,-11px); animation-timing-function: cubic-bezier(.6,0,.4,1); } 30% { transform: translate(225px,348.9px) scale(1,1) translate(-41.5px,-11px); } 35% { transform: translate(225px,348.9px) scale(1,1) translate(-41.5px,-11px); } 45% { transform: translate(225px,348.9px) scale(0,1) translate(-41.5px,-11px); } 100% { transform: translate(225px,348.9px) scale(0,1) translate(-41.5px,-11px); } }
@keyframes a3_t { 0% { transform: translate(225px,198.9px) rotate(-90deg); } 10% { transform: translate(225px,198.9px) rotate(-90deg); } 20% { transform: translate(225px,198.9px) rotate(-90deg); animation-timing-function: cubic-bezier(.6,0,.4,1); } 30% { transform: translate(225px,198.9px) rotate(0deg); } 35% { transform: translate(225px,198.9px) rotate(0deg); } 45% { transform: translate(225px,198.9px) rotate(0deg); } 50% { transform: translate(225px,198.9px) rotate(0deg); animation-timing-function: cubic-bezier(.6,0,.4,1); } 60% { transform: translate(225px,198.9px) rotate(-90deg); } 65% { transform: translate(225px,198.9px) rotate(-90deg); } 75% { transform: translate(225px,198.9px) rotate(-90deg); } 100% { transform: translate(225px,198.9px) rotate(-90deg); } }
@keyframes a2_t { 0% { transform: translate(-200px,-167px); animation-timing-function: cubic-bezier(.6,0,.4,1); } 10% { transform: translate(-150px,-80px); } 20% { transform: translate(-150px,-80px); animation-timing-function: cubic-bezier(.6,0,.4,1); } 30% { transform: translate(-200px,-123px); } 35% { transform: translate(-200px,-123px); animation-timing-function: cubic-bezier(.6,0,.4,1); } 45% { transform: translate(-150px,-100px); } 50% { transform: translate(-150px,-100px); animation-timing-function: cubic-bezier(.6,0,.4,1); } 60% { transform: translate(-150px,-80px); } 65% { transform: translate(-150px,-80px); animation-timing-function: cubic-bezier(.6,0,.4,1); } 75% { transform: translate(-217px,-200px); } 100% { transform: translate(-217px,-200px); } }
@keyframes a2_o { 0% { opacity: 0; animation-timing-function: cubic-bezier(.6,0,.4,1); } 10% { opacity: 1; } 65% { opacity: 1; animation-timing-function: cubic-bezier(.6,0,.4,1); } 75% { opacity: 0; } 100% { opacity: 0; } }
@keyframes a2_sw { 0% { stroke-width: 30px; animation-timing-function: cubic-bezier(.6,0,.4,1); } 10% { stroke-width: 8px; } 65% { stroke-width: 8px; animation-timing-function: cubic-bezier(.6,0,.4,1); } 75% { stroke-width: 30px; } 100% { stroke-width: 30px; } }
@keyframes a2_w { 0% { width: 400px; animation-timing-function: cubic-bezier(.6,0,.4,1); } 10% { width: 300px; } 20% { width: 300px; animation-timing-function: cubic-bezier(.6,0,.4,1); } 30% { width: 400px; } 35% { width: 400px; animation-timing-function: cubic-bezier(.6,0,.4,1); } 45% { width: 300px; } 50% { width: 300px; } 60% { width: 300px; } 65% { width: 300px; animation-timing-function: cubic-bezier(.6,0,.4,1); } 75% { width: 434px; } 100% { width: 434px; } }
@keyframes a2_h { 0% { height: 334px; animation-timing-function: cubic-bezier(.6,0,.4,1); } 10% { height: 160px; } 20% { height: 160px; animation-timing-function: cubic-bezier(.6,0,.4,1); } 30% { height: 246px; } 35% { height: 246px; animation-timing-function: cubic-bezier(.6,0,.4,1); } 45% { height: 200px; } 50% { height: 200px; animation-timing-function: cubic-bezier(.6,0,.4,1); } 60% { height: 160px; } 65% { height: 160px; animation-timing-function: cubic-bezier(.6,0,.4,1); } 75% { height: 400px; } 100% { height: 400px; } }
@keyframes a4_t { 0% { transform: translate(143.5px,48.9px); } 10% { transform: translate(180.5px,98.9px); } 100% { transform: translate(180.5px,98.9px); } }
@keyframes a4_w { 0% { width: 168.5px; } 10% { width: 94.5px; } 100% { width: 94.5px; } }
@keyframes a4_h { 0% { height: 302px; } 10% { height: 202px; } 100% { height: 202px; } }
@keyframes a5_t { 0% { transform: translate(217px,324.9px); animation-timing-function: cubic-bezier(.6,0,.4,1); } 10% { transform: translate(190px,324.9px); } 20% { transform: translate(190px,324.9px); } 30% { transform: translate(190px,324.9px); } 100% { transform: translate(190px,324.9px); } }
@keyframes a5_o { 0% { opacity: 0; animation-timing-function: cubic-bezier(.6,0,.4,1); } 10% { opacity: 1; } 20% { opacity: 1; } 30% { opacity: 0; } 100% { opacity: 0; } }
@keyframes a5_w { 0% { width: 16px; animation-timing-function: cubic-bezier(.6,0,.4,1); } 10% { width: 70px; } 20% { width: 70px; } 30% { width: 70px; } 100% { width: 70px; } }
@keyframes a6_t { 0% { transform: translate(217px,324.9px); } 50% { transform: translate(217px,324.9px); animation-timing-function: cubic-bezier(.6,0,.4,1); } 60% { transform: translate(190px,324.9px); } 65% { transform: translate(190px,324.9px); } 75% { transform: translate(190px,324.9px); } 100% { transform: translate(190px,324.9px); } }
@keyframes a6_o { 0% { opacity: 0; } 50% { opacity: 0; animation-timing-function: cubic-bezier(.6,0,.4,1); } 60% { opacity: 1; } 65% { opacity: 1; animation-timing-function: cubic-bezier(.6,0,.4,1); } 75% { opacity: 0; } 100% { opacity: 0; } }
@keyframes a6_w { 0% { width: 16px; } 50% { width: 16px; animation-timing-function: cubic-bezier(.6,0,.4,1); } 60% { width: 70px; } 65% { width: 70px; } 75% { width: 70px; } 100% { width: 70px; } }
@keyframes a7_t { 0% { transform: translate(225px,198.9px) scale(1.5,1.5) translate(-42.3px,-93px); animation-timing-function: cubic-bezier(.6,0,.4,1); } 10% { transform: translate(225px,198.9px) scale(1,1) translate(-42.3px,-93px); } 20% { transform: translate(225px,198.9px) scale(1,1) translate(-42.3px,-93px); animation-timing-function: cubic-bezier(.6,0,.4,1); } 25% { transform: translate(225px,198.9px) scale(.8,.8) translate(-42.3px,-93px); animation-timing-function: cubic-bezier(.6,0,.4,1); } 30% { transform: translate(225px,198.9px) scale(1,1) translate(-42.3px,-93px); } 35% { transform: translate(225px,198.9px) scale(1,1) translate(-42.3px,-93px); animation-timing-function: cubic-bezier(.4,0,.6,1); } 45% { transform: translate(225px,198.9px) scale(.8,.8) translate(-42.3px,-93px); } 50% { transform: translate(225px,198.9px) scale(.8,.8) translate(-42.3px,-93px); animation-timing-function: cubic-bezier(.4,0,.6,1); } 55% { transform: translate(225px,198.9px) scale(.7,.7) translate(-42.3px,-93px); animation-timing-function: cubic-bezier(.4,0,.6,1); } 60% { transform: translate(225px,198.9px) scale(1,1) translate(-42.3px,-93px); } 65% { transform: translate(225px,198.9px) scale(1,1) translate(-42.3px,-93px); animation-timing-function: cubic-bezier(.4,0,.6,1); } 75% { transform: translate(225px,198.9px) scale(1.5,1.5) translate(-42.3px,-93px); } 100% { transform: translate(225px,198.9px) scale(1.5,1.5) translate(-42.3px,-93px); } }
</style>
<defs><symbol id="Symbol-2" preserveAspectRatio="none" width="111.5" height="186" viewBox="0 0 111.5 186" overflow="visible"><g transform="translate(8.5,4.5)"><rect x="4" width="85" height="8" fill="#d9d9d9"/><rect x="4" y="26" width="85" height="8" fill="#d9d9d9"/><rect x="25" y="56" width="43" height="8" fill="#d9d9d9"/><rect width="85" height="8" fill="#d9d9d9" transform="translate(46.5,175) rotate(180) scale(-1,1) translate(-42.5,-4)"/><rect width="85" height="8" fill="#d9d9d9" transform="translate(46.5,149) rotate(180) scale(-1,1) translate(-42.5,-4)"/><rect width="43" height="8" fill="#d9d9d9" transform="translate(46.5,119) rotate(180) scale(-1,1) translate(-21.5,-4)"/><path d="M0 4c0 53 94.5 115 94.5 169" stroke="#3cc4dc" stroke-width="17" stroke-linecap="square" fill="none"/><path d="M94.5 4c0 53-94.5 115-94.5 169" stroke="#fb422d" stroke-width="17" stroke-linecap="square" fill="none"/></g></symbol><symbol id="Symbol-5" preserveAspectRatio="none" width="84.5" height="186" viewBox="0 0 84.5 186" overflow="visible"><g transform="translate(42.3,93) scale(5.352,6.9) translate(-16,60)"><g transform="translate(-34.9,-125.8)"><g transform="translate(24,5)"><path d="M33 46.5c0 3.1-0.8 5.5-2.2 7.4c-1.4 1.9-3.3 3.6-5.4 5.4c-2.2 1.7-4.5 3.6-6.3 6.2c-1.8 2.5-3.1 5.5-3.1 9.5h4.7c0-3.1 .9-5.4 2.2-7.3c1.4-1.9 3.3-3.5 5.5-5.3c2.1-1.8 4.4-3.7 6.2-6.2c1.8-2.6 3.1-5.6 3.1-9.7Z" fill="#e96020"/><path d="M20.4 70.7c-0.6 0-1 .5-1 1.1c0 .7 .4 1.2 1 1.2h12.9c.7 0 1.2-0.5 1.2-1.2c0-0.6-0.5-1.1-1.2-1.1Z" fill="#2d323b"/><path d="M21.8 66.6c-0.7 0-1 .6-1 1.2c0 .6 .3 1 .9 1h10.3c.6 0 1.1-0.5 1.1-1.1c0-0.6-0.5-1.1-1.1-1.1Z" fill="#2d323b"/><path d="M21.8 53c-0.7 0-1.2 .5-1.1 1.1c0 .6 .4 1.1 1.1 1.1h10.2c.6 0 .9-0.6 .9-1.2c0-0.6-0.3-1-0.9-1Z" fill="#2d323b"/><path d="M20.4 48.8c-0.6 0-1.2 .5-1.2 1.1c0 .7 .6 1.2 1.2 1.2h12.9c.7 0 1-0.5 1-1.1c0-0.7-0.3-1.2-1-1.2Z" fill="#2d323b"/><path d="M16 46.5c0 4.1 1.3 7.1 3.1 9.7c1.8 2.5 4.1 4.4 6.3 6.2c2.1 1.8 4 3.6 5.4 5.5c1.4 1.9 2.2 4 2.2 7.1h4.7c0-4-1.3-7.1-3.1-9.6c-1.8-2.5-4.1-4.4-6.2-6.2c-2.2-1.8-4.1-3.4-5.5-5.3c-1.3-1.9-2.2-4.3-2.2-7.4Z" fill="#00a8d6"/></g></g></g></symbol></defs>

<rect width="1007" height="197" stroke="#0f1116" fill="#0f1116" stroke-width="0"/>

<!-- HWDARC -->
<path d="M148.1 109.2H133.604V79.632H106.436V109.2H91.94V40.656H106.436V67.536H133.604V40.656H148.1V109.2ZM203.122 74.928L194.386 109.2H186.13L181.474 91.2C181.378 90.848 181.25 90.32 181.09 89.616C180.962 88.912 180.802 88.144 180.61 87.312C180.45 86.48 180.306 85.696 180.178 84.96C180.05 84.192 179.954 83.6 179.89 83.184C179.858 83.6 179.762 84.192 179.602 84.96C179.474 85.696 179.33 86.48 179.17 87.312C179.01 88.112 178.85 88.88 178.69 89.616C178.53 90.32 178.402 90.864 178.306 91.248L173.698 109.2H165.442L156.706 74.928H163.858L168.226 93.648C168.354 94.192 168.498 94.864 168.658 95.664C168.818 96.432 168.978 97.248 169.138 98.112C169.298 98.944 169.442 99.76 169.57 100.56C169.73 101.36 169.842 102.048 169.906 102.624C169.97 102.016 170.066 101.328 170.194 100.56C170.322 99.76 170.466 98.96 170.626 98.16C170.786 97.328 170.93 96.56 171.058 95.856C171.218 95.12 171.362 94.544 171.49 94.128L176.482 74.928H183.346L188.338 94.128C188.434 94.544 188.562 95.12 188.722 95.856C188.882 96.56 189.042 97.328 189.202 98.16C189.362 98.992 189.506 99.808 189.634 100.608C189.762 101.376 189.858 102.048 189.922 102.624C190.018 101.824 190.162 100.88 190.354 99.792C190.546 98.672 190.754 97.552 190.978 96.432C191.234 95.312 191.442 94.384 191.602 93.648L195.97 74.928H203.122ZM235.848 91.728C235.848 95.568 235.112 98.784 233.64 101.376C232.168 103.968 230.024 105.92 227.208 107.232C224.424 108.544 221.064 109.2 217.128 109.2H207.432V74.928H218.184C221.768 74.928 224.872 75.568 227.496 76.848C230.152 78.128 232.2 80.016 233.64 82.512C235.112 84.976 235.848 88.048 235.848 91.728ZM228.312 91.92C228.312 89.392 227.944 87.312 227.208 85.68C226.472 84.048 225.368 82.848 223.896 82.08C222.456 81.28 220.68 80.88 218.568 80.88H214.68V103.2H217.8C221.352 103.2 223.992 102.256 225.72 100.368C227.448 98.48 228.312 95.664 228.312 91.92ZM263.002 109.2L260.506 101.04H248.026L245.53 109.2H237.706L249.802 74.784H258.682L270.826 109.2H263.002ZM256.282 86.976C256.122 86.432 255.914 85.744 255.658 84.912C255.402 84.08 255.146 83.232 254.89 82.368C254.634 81.504 254.426 80.752 254.266 80.112C254.106 80.752 253.882 81.552 253.594 82.512C253.338 83.44 253.082 84.336 252.826 85.2C252.602 86.032 252.426 86.624 252.298 86.976L249.85 94.944H258.778L256.282 86.976ZM285.151 74.928C288.255 74.928 290.815 75.312 292.831 76.08C294.847 76.816 296.351 77.952 297.343 79.488C298.335 80.992 298.831 82.896 298.831 85.2C298.831 86.768 298.527 88.144 297.919 89.328C297.343 90.48 296.559 91.472 295.567 92.304C294.607 93.104 293.567 93.76 292.447 94.272L302.527 109.2H294.463L286.303 96.048H282.415V109.2H275.167V74.928H285.151ZM284.623 80.88H282.415V90.144H284.767C286.367 90.144 287.663 89.968 288.655 89.616C289.647 89.264 290.367 88.736 290.815 88.032C291.263 87.296 291.487 86.416 291.487 85.392C291.487 84.304 291.231 83.44 290.719 82.8C290.239 82.128 289.487 81.648 288.463 81.36C287.471 81.04 286.191 80.88 284.623 80.88ZM321.398 80.496C320.022 80.496 318.79 80.768 317.702 81.312C316.646 81.856 315.75 82.64 315.014 83.664C314.278 84.656 313.718 85.872 313.334 87.312C312.982 88.752 312.806 90.368 312.806 92.16C312.806 94.592 313.094 96.672 313.67 98.4C314.278 100.096 315.222 101.392 316.502 102.288C317.782 103.184 319.414 103.632 321.398 103.632C322.806 103.632 324.198 103.472 325.574 103.152C326.982 102.832 328.502 102.384 330.134 101.808V107.904C328.63 108.512 327.142 108.96 325.67 109.248C324.198 109.536 322.55 109.68 320.726 109.68C317.206 109.68 314.294 108.96 311.99 107.52C309.718 106.048 308.038 104 306.95 101.376C305.862 98.72 305.318 95.632 305.318 92.112C305.318 89.52 305.67 87.152 306.374 85.008C307.078 82.832 308.102 80.96 309.446 79.392C310.822 77.824 312.502 76.608 314.486 75.744C316.502 74.88 318.806 74.448 321.398 74.448C323.094 74.448 324.79 74.672 326.486 75.12C328.214 75.536 329.862 76.112 331.43 76.848L329.078 82.752C327.798 82.144 326.502 81.616 325.19 81.168C323.91 80.72 322.646 80.496 321.398 80.496Z" fill="white"/>

<!-- Hardware Architecture who Tinkers with Software -->
<path d="M97.4969 161.8H94.2391V154.405H89.4109V161.8H86.1414V144.738H89.4109V151.734H94.2391V144.738H97.4969V161.8ZM108.688 161.8C108.61 161.644 108.544 161.464 108.489 161.261C108.434 161.058 108.388 160.843 108.348 160.616C108.169 160.812 107.962 160.995 107.727 161.167C107.493 161.339 107.235 161.488 106.954 161.613C106.665 161.745 106.348 161.847 106.005 161.917C105.661 161.995 105.29 162.034 104.891 162.034C104.243 162.034 103.645 161.941 103.098 161.753C102.559 161.566 102.095 161.304 101.704 160.968C101.313 160.632 101.009 160.234 100.79 159.773C100.571 159.304 100.462 158.796 100.462 158.249C100.462 157.546 100.598 156.925 100.872 156.386C101.145 155.839 101.555 155.39 102.102 155.038C102.595 154.718 103.2 154.476 103.919 154.312C104.645 154.14 105.477 154.054 106.415 154.054H108.231V153.304C108.231 153.007 108.184 152.741 108.091 152.507C107.997 152.265 107.856 152.058 107.669 151.886C107.473 151.706 107.227 151.57 106.93 151.476C106.641 151.374 106.302 151.323 105.911 151.323C105.567 151.323 105.27 151.366 105.02 151.452C104.77 151.53 104.567 151.644 104.411 151.792C104.27 151.925 104.165 152.085 104.095 152.273C104.032 152.46 104.001 152.667 104.001 152.894H100.743C100.743 152.355 100.86 151.843 101.095 151.359C101.337 150.874 101.688 150.448 102.149 150.081C102.602 149.714 103.157 149.425 103.813 149.214C104.477 148.995 105.235 148.886 106.087 148.886C106.852 148.886 107.563 148.98 108.22 149.167C108.884 149.355 109.458 149.632 109.942 149.999C110.427 150.366 110.805 150.831 111.079 151.394C111.352 151.948 111.489 152.593 111.489 153.327V158.765C111.489 159.445 111.532 160.007 111.618 160.452C111.704 160.898 111.829 161.28 111.993 161.601V161.8H108.688ZM105.583 159.515C105.911 159.515 106.216 159.476 106.497 159.398C106.778 159.32 107.032 159.218 107.259 159.093C107.485 158.968 107.68 158.827 107.845 158.671C108.009 158.507 108.138 158.343 108.231 158.179V155.999H106.567C106.059 155.999 105.626 156.05 105.266 156.152C104.907 156.245 104.614 156.378 104.388 156.55C104.161 156.73 103.993 156.945 103.884 157.195C103.774 157.437 103.72 157.702 103.72 157.991C103.72 158.218 103.759 158.429 103.837 158.624C103.923 158.812 104.044 158.972 104.2 159.105C104.356 159.23 104.548 159.331 104.774 159.409C105.009 159.48 105.278 159.515 105.583 159.515ZM124.286 148.886C124.778 148.886 125.231 148.921 125.645 148.991C126.067 149.054 126.407 149.124 126.665 149.202L126.184 152.448C125.755 152.347 125.313 152.273 124.86 152.226C124.415 152.171 123.989 152.144 123.583 152.144C123.161 152.144 122.778 152.183 122.434 152.261C122.098 152.331 121.798 152.441 121.532 152.589C121.212 152.761 120.938 152.98 120.712 153.245C120.485 153.511 120.298 153.823 120.149 154.183V161.8H116.891V149.12H119.927L120.055 150.913L120.079 151.195C120.595 150.476 121.212 149.913 121.93 149.507C122.649 149.093 123.434 148.886 124.286 148.886ZM129.255 155.366C129.255 154.405 129.364 153.527 129.583 152.73C129.809 151.933 130.138 151.249 130.567 150.679C130.997 150.109 131.516 149.667 132.126 149.355C132.743 149.042 133.446 148.886 134.235 148.886C134.899 148.886 135.481 149.007 135.981 149.249C136.489 149.484 136.938 149.82 137.329 150.257V143.8H140.598V161.8H137.657L137.493 160.476C137.095 160.968 136.626 161.351 136.087 161.624C135.548 161.898 134.923 162.034 134.212 162.034C133.438 162.034 132.743 161.874 132.126 161.554C131.516 161.226 131.001 160.777 130.579 160.206C130.149 159.636 129.821 158.96 129.595 158.179C129.368 157.39 129.255 156.534 129.255 155.613V155.366ZM132.513 155.613C132.513 156.144 132.555 156.64 132.641 157.101C132.735 157.554 132.884 157.948 133.087 158.284C133.29 158.628 133.552 158.898 133.872 159.093C134.192 159.288 134.583 159.386 135.044 159.386C135.606 159.386 136.071 159.265 136.438 159.023C136.813 158.78 137.11 158.448 137.329 158.027V152.894C137.11 152.464 136.817 152.132 136.45 151.898C136.083 151.655 135.622 151.534 135.067 151.534C134.606 151.534 134.212 151.636 133.884 151.839C133.563 152.034 133.302 152.304 133.098 152.648C132.895 152.999 132.747 153.409 132.653 153.878C132.559 154.339 132.513 154.835 132.513 155.366V155.613ZM144.946 161.8L142.673 149.12H145.649L146.598 156.655L146.751 157.863L146.973 156.655L148.345 149.12H150.524L151.895 156.62L152.118 157.827L152.282 156.597L153.22 149.12H156.208L153.934 161.8H151.075L149.68 155.027L149.411 153.738L149.153 155.027L147.805 161.8H144.946ZM166.345 161.8C166.266 161.644 166.2 161.464 166.145 161.261C166.091 161.058 166.044 160.843 166.005 160.616C165.825 160.812 165.618 160.995 165.384 161.167C165.149 161.339 164.891 161.488 164.61 161.613C164.321 161.745 164.005 161.847 163.661 161.917C163.317 161.995 162.946 162.034 162.548 162.034C161.899 162.034 161.302 161.941 160.755 161.753C160.216 161.566 159.751 161.304 159.36 160.968C158.97 160.632 158.665 160.234 158.446 159.773C158.227 159.304 158.118 158.796 158.118 158.249C158.118 157.546 158.255 156.925 158.528 156.386C158.802 155.839 159.212 155.39 159.759 155.038C160.251 154.718 160.856 154.476 161.575 154.312C162.302 154.14 163.134 154.054 164.071 154.054H165.888V153.304C165.888 153.007 165.841 152.741 165.747 152.507C165.653 152.265 165.513 152.058 165.325 151.886C165.13 151.706 164.884 151.57 164.587 151.476C164.298 151.374 163.958 151.323 163.567 151.323C163.223 151.323 162.927 151.366 162.677 151.452C162.427 151.53 162.223 151.644 162.067 151.792C161.927 151.925 161.821 152.085 161.751 152.273C161.688 152.46 161.657 152.667 161.657 152.894H158.399C158.399 152.355 158.516 151.843 158.751 151.359C158.993 150.874 159.345 150.448 159.805 150.081C160.259 149.714 160.813 149.425 161.47 149.214C162.134 148.995 162.891 148.886 163.743 148.886C164.509 148.886 165.22 148.98 165.876 149.167C166.54 149.355 167.114 149.632 167.598 149.999C168.083 150.366 168.462 150.831 168.735 151.394C169.009 151.948 169.145 152.593 169.145 153.327V158.765C169.145 159.445 169.188 160.007 169.274 160.452C169.36 160.898 169.485 161.28 169.649 161.601V161.8H166.345ZM163.239 159.515C163.567 159.515 163.872 159.476 164.153 159.398C164.434 159.32 164.688 159.218 164.915 159.093C165.141 158.968 165.337 158.827 165.501 158.671C165.665 158.507 165.794 158.343 165.888 158.179V155.999H164.223C163.716 155.999 163.282 156.05 162.923 156.152C162.563 156.245 162.27 156.378 162.044 156.55C161.817 156.73 161.649 156.945 161.54 157.195C161.43 157.437 161.376 157.702 161.376 157.991C161.376 158.218 161.415 158.429 161.493 158.624C161.579 158.812 161.7 158.972 161.856 159.105C162.013 159.23 162.204 159.331 162.43 159.409C162.665 159.48 162.934 159.515 163.239 159.515ZM181.942 148.886C182.434 148.886 182.888 148.921 183.302 148.991C183.723 149.054 184.063 149.124 184.321 149.202L183.841 152.448C183.411 152.347 182.97 152.273 182.516 152.226C182.071 152.171 181.645 152.144 181.239 152.144C180.817 152.144 180.434 152.183 180.091 152.261C179.755 152.331 179.454 152.441 179.188 152.589C178.868 152.761 178.595 152.98 178.368 153.245C178.141 153.511 177.954 153.823 177.805 154.183V161.8H174.548V149.12H177.583L177.712 150.913L177.735 151.195C178.251 150.476 178.868 149.913 179.587 149.507C180.305 149.093 181.091 148.886 181.942 148.886ZM193.403 162.034C192.427 162.034 191.54 161.874 190.743 161.554C189.946 161.234 189.263 160.796 188.692 160.241C188.122 159.695 187.68 159.05 187.368 158.308C187.063 157.558 186.911 156.757 186.911 155.905V155.437C186.911 154.468 187.063 153.585 187.368 152.788C187.673 151.984 188.098 151.292 188.645 150.714C189.192 150.136 189.841 149.687 190.591 149.366C191.341 149.046 192.157 148.886 193.04 148.886C193.954 148.886 194.766 149.038 195.477 149.343C196.196 149.64 196.805 150.062 197.305 150.609C197.798 151.155 198.173 151.816 198.43 152.589C198.688 153.355 198.817 154.202 198.817 155.132V156.515H190.216V156.55C190.325 157.058 190.466 157.468 190.638 157.78C190.809 158.085 191.04 158.363 191.329 158.613C191.626 158.87 191.966 159.07 192.348 159.21C192.731 159.351 193.149 159.421 193.602 159.421C194.243 159.421 194.864 159.3 195.466 159.058C196.067 158.816 196.555 158.452 196.93 157.968L198.559 159.726C198.145 160.312 197.489 160.843 196.591 161.32C195.692 161.796 194.63 162.034 193.403 162.034ZM193.016 151.523C192.649 151.523 192.313 151.589 192.009 151.722C191.704 151.847 191.438 152.03 191.212 152.273C190.977 152.515 190.782 152.804 190.626 153.14C190.47 153.476 190.352 153.851 190.274 154.265H195.618V154.007C195.618 153.663 195.555 153.339 195.43 153.034C195.305 152.73 195.134 152.464 194.915 152.238C194.696 152.019 194.427 151.847 194.106 151.722C193.794 151.589 193.43 151.523 193.016 151.523ZM224.352 158.238H219.231L218.223 161.8H214.755L220.345 144.738H223.333L228.817 161.8H225.348L224.352 158.238ZM220.04 155.437H223.579L221.833 149.155L220.04 155.437ZM239.598 148.886C240.091 148.886 240.544 148.921 240.958 148.991C241.38 149.054 241.72 149.124 241.977 149.202L241.497 152.448C241.067 152.347 240.626 152.273 240.173 152.226C239.727 152.171 239.302 152.144 238.895 152.144C238.473 152.144 238.091 152.183 237.747 152.261C237.411 152.331 237.11 152.441 236.845 152.589C236.524 152.761 236.251 152.98 236.024 153.245C235.798 153.511 235.61 153.823 235.462 154.183V161.8H232.204V149.12H235.239L235.368 150.913L235.391 151.195C235.907 150.476 236.524 149.913 237.243 149.507C237.962 149.093 238.747 148.886 239.598 148.886ZM250.52 159.433C250.841 159.433 251.145 159.386 251.434 159.292C251.723 159.198 251.977 159.066 252.196 158.894C252.415 158.722 252.583 158.515 252.7 158.273C252.825 158.03 252.88 157.761 252.864 157.464H255.934C255.95 158.12 255.813 158.73 255.524 159.292C255.243 159.855 254.856 160.339 254.364 160.745C253.872 161.152 253.298 161.472 252.641 161.706C251.993 161.933 251.305 162.046 250.579 162.046C249.595 162.046 248.731 161.882 247.989 161.554C247.247 161.218 246.63 160.761 246.138 160.183C245.638 159.605 245.259 158.929 245.001 158.155C244.751 157.374 244.626 156.538 244.626 155.648V155.296C244.626 154.405 244.751 153.573 245.001 152.8C245.251 152.019 245.626 151.339 246.126 150.761C246.626 150.183 247.243 149.726 247.977 149.39C248.72 149.054 249.579 148.886 250.555 148.886C251.337 148.886 252.059 149.003 252.723 149.238C253.388 149.472 253.962 149.8 254.446 150.222C254.923 150.652 255.294 151.171 255.559 151.78C255.825 152.382 255.95 153.058 255.934 153.808H252.864C252.88 153.495 252.833 153.198 252.723 152.917C252.614 152.636 252.454 152.394 252.243 152.191C252.032 151.988 251.778 151.827 251.481 151.71C251.184 151.585 250.86 151.523 250.509 151.523C249.993 151.523 249.567 151.628 249.231 151.839C248.895 152.05 248.63 152.331 248.434 152.683C248.231 153.034 248.087 153.437 248.001 153.89C247.923 154.343 247.884 154.812 247.884 155.296V155.648C247.884 156.14 247.923 156.616 248.001 157.077C248.079 157.53 248.22 157.929 248.423 158.273C248.618 158.624 248.884 158.905 249.22 159.116C249.563 159.327 249.997 159.433 250.52 159.433ZM262.579 150.866C262.743 150.624 262.923 150.402 263.118 150.198C263.321 149.988 263.532 149.804 263.751 149.648C264.087 149.405 264.458 149.218 264.864 149.085C265.27 148.952 265.7 148.886 266.153 148.886C266.817 148.886 267.427 148.988 267.981 149.191C268.536 149.386 269.013 149.695 269.411 150.116C269.809 150.538 270.118 151.081 270.337 151.745C270.563 152.402 270.677 153.195 270.677 154.124V161.8H267.419V154.101C267.419 153.648 267.36 153.257 267.243 152.929C267.134 152.601 266.973 152.335 266.763 152.132C266.552 151.929 266.298 151.78 266.001 151.687C265.704 151.585 265.368 151.534 264.993 151.534C264.704 151.534 264.434 151.562 264.184 151.616C263.934 151.671 263.708 151.753 263.505 151.863C263.317 151.956 263.145 152.07 262.989 152.202C262.841 152.335 262.704 152.484 262.579 152.648V161.8H259.321V143.8H262.579V150.866ZM274.602 149.12H281.505V159.152H284.938V161.8H274.602V159.152H278.212V151.78H274.602V149.12ZM277.977 145.874C277.977 145.624 278.02 145.394 278.106 145.183C278.2 144.964 278.329 144.777 278.493 144.62C278.657 144.472 278.852 144.355 279.079 144.269C279.313 144.183 279.571 144.14 279.852 144.14C280.43 144.14 280.888 144.304 281.223 144.632C281.567 144.952 281.739 145.366 281.739 145.874C281.739 146.382 281.567 146.8 281.223 147.128C280.888 147.448 280.43 147.609 279.852 147.609C279.571 147.609 279.313 147.566 279.079 147.48C278.852 147.394 278.657 147.273 278.493 147.116C278.329 146.968 278.2 146.788 278.106 146.577C278.02 146.359 277.977 146.124 277.977 145.874ZM294.126 146.015V149.12H298.86V151.523H294.126V156.972C294.126 157.433 294.177 157.82 294.278 158.132C294.388 158.437 294.54 158.679 294.735 158.859C294.93 159.046 295.165 159.179 295.438 159.257C295.72 159.335 296.032 159.374 296.376 159.374C296.626 159.374 296.88 159.363 297.138 159.339C297.403 159.316 297.657 159.284 297.899 159.245C298.134 159.214 298.352 159.179 298.555 159.14C298.766 159.101 298.946 159.062 299.095 159.023L299.411 161.261C299.184 161.394 298.919 161.511 298.614 161.613C298.309 161.706 297.985 161.784 297.641 161.847C297.298 161.909 296.938 161.956 296.563 161.988C296.196 162.027 295.833 162.046 295.473 162.046C294.778 162.046 294.145 161.956 293.575 161.777C293.013 161.589 292.532 161.3 292.134 160.909C291.727 160.527 291.415 160.038 291.196 159.445C290.977 158.843 290.868 158.124 290.868 157.288V151.523H287.973V149.12H290.868V146.015H294.126ZM308.716 162.034C307.739 162.034 306.852 161.874 306.055 161.554C305.259 161.234 304.575 160.796 304.005 160.241C303.434 159.695 302.993 159.05 302.68 158.308C302.376 157.558 302.223 156.757 302.223 155.905V155.437C302.223 154.468 302.376 153.585 302.68 152.788C302.985 151.984 303.411 151.292 303.958 150.714C304.505 150.136 305.153 149.687 305.903 149.366C306.653 149.046 307.47 148.886 308.352 148.886C309.266 148.886 310.079 149.038 310.79 149.343C311.509 149.64 312.118 150.062 312.618 150.609C313.11 151.155 313.485 151.816 313.743 152.589C314.001 153.355 314.13 154.202 314.13 155.132V156.515H305.528V156.55C305.638 157.058 305.778 157.468 305.95 157.78C306.122 158.085 306.352 158.363 306.641 158.613C306.938 158.87 307.278 159.07 307.661 159.21C308.044 159.351 308.462 159.421 308.915 159.421C309.555 159.421 310.177 159.3 310.778 159.058C311.38 158.816 311.868 158.452 312.243 157.968L313.872 159.726C313.458 160.312 312.802 160.843 311.903 161.32C311.005 161.796 309.942 162.034 308.716 162.034ZM308.329 151.523C307.962 151.523 307.626 151.589 307.321 151.722C307.016 151.847 306.751 152.03 306.524 152.273C306.29 152.515 306.095 152.804 305.938 153.14C305.782 153.476 305.665 153.851 305.587 154.265H310.93V154.007C310.93 153.663 310.868 153.339 310.743 153.034C310.618 152.73 310.446 152.464 310.227 152.238C310.009 152.019 309.739 151.847 309.419 151.722C309.106 151.589 308.743 151.523 308.329 151.523ZM322.591 159.433C322.911 159.433 323.216 159.386 323.505 159.292C323.794 159.198 324.048 159.066 324.266 158.894C324.485 158.722 324.653 158.515 324.77 158.273C324.895 158.03 324.95 157.761 324.934 157.464H328.005C328.02 158.12 327.884 158.73 327.595 159.292C327.313 159.855 326.927 160.339 326.434 160.745C325.942 161.152 325.368 161.472 324.712 161.706C324.063 161.933 323.376 162.046 322.649 162.046C321.665 162.046 320.802 161.882 320.059 161.554C319.317 161.218 318.7 160.761 318.208 160.183C317.708 159.605 317.329 158.929 317.071 158.155C316.821 157.374 316.696 156.538 316.696 155.648V155.296C316.696 154.405 316.821 153.573 317.071 152.8C317.321 152.019 317.696 151.339 318.196 150.761C318.696 150.183 319.313 149.726 320.048 149.39C320.79 149.054 321.649 148.886 322.626 148.886C323.407 148.886 324.13 149.003 324.794 149.238C325.458 149.472 326.032 149.8 326.516 150.222C326.993 150.652 327.364 151.171 327.63 151.78C327.895 152.382 328.02 153.058 328.005 153.808H324.934C324.95 153.495 324.903 153.198 324.794 152.917C324.684 152.636 324.524 152.394 324.313 152.191C324.102 151.988 323.848 151.827 323.552 151.71C323.255 151.585 322.93 151.523 322.579 151.523C322.063 151.523 321.638 151.628 321.302 151.839C320.966 152.05 320.7 152.331 320.505 152.683C320.302 153.034 320.157 153.437 320.071 153.89C319.993 154.343 319.954 154.812 319.954 155.296V155.648C319.954 156.14 319.993 156.616 320.071 157.077C320.149 157.53 320.29 157.929 320.493 158.273C320.688 158.624 320.954 158.905 321.29 159.116C321.634 159.327 322.067 159.433 322.591 159.433ZM337.368 146.015V149.12H342.102V151.523H337.368V156.972C337.368 157.433 337.419 157.82 337.52 158.132C337.63 158.437 337.782 158.679 337.977 158.859C338.173 159.046 338.407 159.179 338.68 159.257C338.962 159.335 339.274 159.374 339.618 159.374C339.868 159.374 340.122 159.363 340.38 159.339C340.645 159.316 340.899 159.284 341.141 159.245C341.376 159.214 341.595 159.179 341.798 159.14C342.009 159.101 342.188 159.062 342.337 159.023L342.653 161.261C342.427 161.394 342.161 161.511 341.856 161.613C341.552 161.706 341.227 161.784 340.884 161.847C340.54 161.909 340.18 161.956 339.805 161.988C339.438 162.027 339.075 162.046 338.716 162.046C338.02 162.046 337.388 161.956 336.817 161.777C336.255 161.589 335.774 161.3 335.376 160.909C334.97 160.527 334.657 160.038 334.438 159.445C334.22 158.843 334.11 158.124 334.11 157.288V151.523H331.216V149.12H334.11V146.015H337.368ZM354.079 161.8L353.891 160.019C353.462 160.652 352.942 161.148 352.333 161.507C351.731 161.866 351.071 162.046 350.352 162.046C349.696 162.046 349.095 161.945 348.548 161.741C348.001 161.538 347.532 161.214 347.141 160.769C346.751 160.331 346.446 159.773 346.227 159.093C346.016 158.405 345.911 157.581 345.911 156.62V149.12H349.169V156.644C349.169 157.159 349.204 157.593 349.274 157.945C349.352 158.296 349.473 158.577 349.638 158.788C349.802 159.007 350.016 159.163 350.282 159.257C350.548 159.351 350.872 159.398 351.255 159.398C351.598 159.398 351.907 159.363 352.18 159.292C352.462 159.222 352.708 159.12 352.919 158.988C353.098 158.87 353.259 158.73 353.399 158.566C353.54 158.402 353.661 158.218 353.763 158.015V149.12H357.032V161.8H354.079ZM369.325 148.886C369.817 148.886 370.27 148.921 370.684 148.991C371.106 149.054 371.446 149.124 371.704 149.202L371.223 152.448C370.794 152.347 370.352 152.273 369.899 152.226C369.454 152.171 369.028 152.144 368.622 152.144C368.2 152.144 367.817 152.183 367.473 152.261C367.138 152.331 366.837 152.441 366.571 152.589C366.251 152.761 365.977 152.98 365.751 153.245C365.524 153.511 365.337 153.823 365.188 154.183V161.8H361.93V149.12H364.966L365.095 150.913L365.118 151.195C365.634 150.476 366.251 149.913 366.97 149.507C367.688 149.093 368.473 148.886 369.325 148.886ZM380.786 162.034C379.809 162.034 378.923 161.874 378.126 161.554C377.329 161.234 376.645 160.796 376.075 160.241C375.505 159.695 375.063 159.05 374.751 158.308C374.446 157.558 374.294 156.757 374.294 155.905V155.437C374.294 154.468 374.446 153.585 374.751 152.788C375.055 151.984 375.481 151.292 376.028 150.714C376.575 150.136 377.223 149.687 377.973 149.366C378.723 149.046 379.54 148.886 380.423 148.886C381.337 148.886 382.149 149.038 382.86 149.343C383.579 149.64 384.188 150.062 384.688 150.609C385.18 151.155 385.555 151.816 385.813 152.589C386.071 153.355 386.2 154.202 386.2 155.132V156.515H377.598V156.55C377.708 157.058 377.848 157.468 378.02 157.78C378.192 158.085 378.423 158.363 378.712 158.613C379.009 158.87 379.348 159.07 379.731 159.21C380.114 159.351 380.532 159.421 380.985 159.421C381.626 159.421 382.247 159.3 382.848 159.058C383.45 158.816 383.938 158.452 384.313 157.968L385.942 159.726C385.528 160.312 384.872 160.843 383.973 161.32C383.075 161.796 382.013 162.034 380.786 162.034ZM380.399 151.523C380.032 151.523 379.696 151.589 379.391 151.722C379.087 151.847 378.821 152.03 378.595 152.273C378.36 152.515 378.165 152.804 378.009 153.14C377.852 153.476 377.735 153.851 377.657 154.265H383.001V154.007C383.001 153.663 382.938 153.339 382.813 153.034C382.688 152.73 382.516 152.464 382.298 152.238C382.079 152.019 381.809 151.847 381.489 151.722C381.177 151.589 380.813 151.523 380.399 151.523ZM404.399 161.8L402.126 149.12H405.102L406.052 156.655L406.204 157.863L406.427 156.655L407.798 149.12H409.977L411.348 156.62L411.571 157.827L411.735 156.597L412.673 149.12H415.661L413.388 161.8H410.528L409.134 155.027L408.864 153.738L408.606 155.027L407.259 161.8H404.399ZM421.134 150.866C421.298 150.624 421.477 150.402 421.673 150.198C421.876 149.988 422.087 149.804 422.305 149.648C422.641 149.405 423.013 149.218 423.419 149.085C423.825 148.952 424.255 148.886 424.708 148.886C425.372 148.886 425.981 148.988 426.536 149.191C427.091 149.386 427.567 149.695 427.966 150.116C428.364 150.538 428.673 151.081 428.891 151.745C429.118 152.402 429.231 153.195 429.231 154.124V161.8H425.973V154.101C425.973 153.648 425.915 153.257 425.798 152.929C425.688 152.601 425.528 152.335 425.317 152.132C425.106 151.929 424.852 151.78 424.555 151.687C424.259 151.585 423.923 151.534 423.548 151.534C423.259 151.534 422.989 151.562 422.739 151.616C422.489 151.671 422.263 151.753 422.059 151.863C421.872 151.956 421.7 152.07 421.544 152.202C421.395 152.335 421.259 152.484 421.134 152.648V161.8H417.876V143.8H421.134V150.866ZM431.845 155.343C431.845 154.421 431.977 153.57 432.243 152.788C432.509 151.999 432.899 151.316 433.415 150.738C433.923 150.159 434.544 149.706 435.278 149.378C436.02 149.05 436.868 148.886 437.821 148.886C438.774 148.886 439.622 149.05 440.364 149.378C441.106 149.706 441.735 150.159 442.251 150.738C442.759 151.316 443.145 151.999 443.411 152.788C443.677 153.57 443.809 154.421 443.809 155.343V155.589C443.809 156.519 443.677 157.378 443.411 158.167C443.145 158.948 442.759 159.628 442.251 160.206C441.743 160.784 441.118 161.238 440.376 161.566C439.634 161.886 438.79 162.046 437.845 162.046C436.891 162.046 436.04 161.886 435.29 161.566C434.548 161.238 433.923 160.784 433.415 160.206C432.899 159.628 432.509 158.948 432.243 158.167C431.977 157.378 431.845 156.519 431.845 155.589V155.343ZM435.102 155.589C435.102 156.12 435.153 156.62 435.255 157.089C435.356 157.55 435.516 157.952 435.735 158.296C435.954 158.648 436.235 158.925 436.579 159.128C436.93 159.331 437.352 159.433 437.845 159.433C438.321 159.433 438.731 159.331 439.075 159.128C439.419 158.925 439.7 158.648 439.919 158.296C440.13 157.952 440.286 157.55 440.388 157.089C440.489 156.62 440.54 156.12 440.54 155.589V155.343C440.54 154.827 440.489 154.339 440.388 153.878C440.286 153.417 440.13 153.011 439.919 152.659C439.7 152.308 439.419 152.03 439.075 151.827C438.731 151.624 438.313 151.523 437.821 151.523C437.337 151.523 436.923 151.624 436.579 151.827C436.235 152.03 435.954 152.308 435.735 152.659C435.516 153.011 435.356 153.417 435.255 153.878C435.153 154.339 435.102 154.827 435.102 155.343V155.589ZM473.54 147.421H468.278V161.8H464.973V147.421H459.782V144.738H473.54V147.421ZM476.399 149.12H483.302V159.152H486.735V161.8H476.399V159.152H480.009V151.78H476.399V149.12ZM479.774 145.874C479.774 145.624 479.817 145.394 479.903 145.183C479.997 144.964 480.126 144.777 480.29 144.62C480.454 144.472 480.649 144.355 480.876 144.269C481.11 144.183 481.368 144.14 481.649 144.14C482.227 144.14 482.684 144.304 483.02 144.632C483.364 144.952 483.536 145.366 483.536 145.874C483.536 146.382 483.364 146.8 483.02 147.128C482.684 147.448 482.227 147.609 481.649 147.609C481.368 147.609 481.11 147.566 480.876 147.48C480.649 147.394 480.454 147.273 480.29 147.116C480.126 146.968 479.997 146.788 479.903 146.577C479.817 146.359 479.774 146.124 479.774 145.874ZM489.946 161.8V149.12H492.899L493.098 150.878C493.263 150.644 493.442 150.429 493.638 150.234C493.833 150.038 494.04 149.863 494.259 149.706C494.634 149.441 495.044 149.238 495.489 149.097C495.934 148.956 496.407 148.886 496.907 148.886C497.548 148.886 498.134 148.98 498.665 149.167C499.196 149.355 499.657 149.652 500.048 150.058C500.43 150.472 500.727 151.003 500.938 151.652C501.157 152.292 501.266 153.073 501.266 153.995V161.8H498.009V154.042C498.009 153.542 497.95 153.132 497.833 152.812C497.723 152.484 497.563 152.226 497.352 152.038C497.141 151.851 496.888 151.722 496.591 151.652C496.294 151.573 495.958 151.534 495.583 151.534C495.27 151.534 494.981 151.57 494.716 151.64C494.458 151.71 494.227 151.816 494.024 151.956C493.86 152.058 493.712 152.179 493.579 152.32C493.446 152.46 493.325 152.616 493.216 152.788V161.8H489.946ZM509.13 156.562L507.653 157.933V161.8H504.395V143.8H507.653V154.089L508.638 152.964L512.141 149.12H516.055L511.274 154.405L516.723 161.8H512.727L509.13 156.562ZM524.927 162.034C523.95 162.034 523.063 161.874 522.266 161.554C521.47 161.234 520.786 160.796 520.216 160.241C519.645 159.695 519.204 159.05 518.891 158.308C518.587 157.558 518.434 156.757 518.434 155.905V155.437C518.434 154.468 518.587 153.585 518.891 152.788C519.196 151.984 519.622 151.292 520.169 150.714C520.716 150.136 521.364 149.687 522.114 149.366C522.864 149.046 523.68 148.886 524.563 148.886C525.477 148.886 526.29 149.038 527.001 149.343C527.72 149.64 528.329 150.062 528.829 150.609C529.321 151.155 529.696 151.816 529.954 152.589C530.212 153.355 530.341 154.202 530.341 155.132V156.515H521.739V156.55C521.848 157.058 521.989 157.468 522.161 157.78C522.333 158.085 522.563 158.363 522.852 158.613C523.149 158.87 523.489 159.07 523.872 159.21C524.255 159.351 524.673 159.421 525.126 159.421C525.766 159.421 526.388 159.3 526.989 159.058C527.591 158.816 528.079 158.452 528.454 157.968L530.083 159.726C529.669 160.312 529.013 160.843 528.114 161.32C527.216 161.796 526.153 162.034 524.927 162.034ZM524.54 151.523C524.173 151.523 523.837 151.589 523.532 151.722C523.227 151.847 522.962 152.03 522.735 152.273C522.501 152.515 522.305 152.804 522.149 153.14C521.993 153.476 521.876 153.851 521.798 154.265H527.141V154.007C527.141 153.663 527.079 153.339 526.954 153.034C526.829 152.73 526.657 152.464 526.438 152.238C526.22 152.019 525.95 151.847 525.63 151.722C525.317 151.589 524.954 151.523 524.54 151.523ZM542.294 148.886C542.786 148.886 543.239 148.921 543.653 148.991C544.075 149.054 544.415 149.124 544.673 149.202L544.192 152.448C543.763 152.347 543.321 152.273 542.868 152.226C542.423 152.171 541.997 152.144 541.591 152.144C541.169 152.144 540.786 152.183 540.442 152.261C540.106 152.331 539.805 152.441 539.54 152.589C539.22 152.761 538.946 152.98 538.72 153.245C538.493 153.511 538.305 153.823 538.157 154.183V161.8H534.899V149.12H537.934L538.063 150.913L538.087 151.195C538.602 150.476 539.22 149.913 539.938 149.507C540.657 149.093 541.442 148.886 542.294 148.886ZM555.782 158.32C555.782 158.124 555.735 157.952 555.641 157.804C555.555 157.655 555.399 157.515 555.173 157.382C554.938 157.257 554.63 157.14 554.247 157.03C553.864 156.921 553.38 156.812 552.794 156.702C552.052 156.554 551.372 156.37 550.755 156.152C550.145 155.925 549.622 155.652 549.184 155.331C548.747 155.019 548.403 154.655 548.153 154.241C547.911 153.827 547.79 153.351 547.79 152.812C547.79 152.288 547.915 151.788 548.165 151.312C548.415 150.835 548.774 150.417 549.243 150.058C549.712 149.698 550.282 149.413 550.954 149.202C551.626 148.991 552.384 148.886 553.227 148.886C554.11 148.886 554.903 148.991 555.606 149.202C556.309 149.405 556.907 149.687 557.399 150.046C557.884 150.413 558.255 150.847 558.513 151.347C558.77 151.847 558.899 152.39 558.899 152.976H555.641C555.641 152.765 555.606 152.57 555.536 152.39C555.466 152.202 555.36 152.034 555.22 151.886C555.024 151.691 554.759 151.534 554.423 151.417C554.095 151.3 553.696 151.241 553.227 151.241C552.829 151.241 552.481 151.28 552.184 151.359C551.888 151.437 551.645 151.546 551.458 151.687C551.286 151.812 551.153 151.96 551.059 152.132C550.973 152.296 550.93 152.472 550.93 152.659C550.93 152.847 550.97 153.023 551.048 153.187C551.126 153.343 551.266 153.484 551.47 153.609C551.665 153.741 551.934 153.863 552.278 153.972C552.622 154.073 553.059 154.163 553.591 154.241C554.356 154.366 555.067 154.527 555.723 154.722C556.38 154.917 556.946 155.167 557.423 155.472C557.899 155.784 558.27 156.163 558.536 156.609C558.809 157.046 558.946 157.57 558.946 158.179C558.946 158.741 558.809 159.261 558.536 159.738C558.27 160.206 557.891 160.613 557.399 160.956C556.899 161.3 556.298 161.57 555.595 161.765C554.891 161.952 554.106 162.046 553.239 162.046C552.286 162.046 551.442 161.921 550.708 161.671C549.981 161.421 549.372 161.093 548.88 160.687C548.388 160.288 548.013 159.835 547.755 159.327C547.505 158.812 547.38 158.296 547.38 157.78H550.485C550.509 158.124 550.602 158.421 550.766 158.671C550.93 158.913 551.141 159.109 551.399 159.257C551.657 159.413 551.95 159.527 552.278 159.597C552.614 159.667 552.958 159.702 553.309 159.702C553.731 159.702 554.098 159.667 554.411 159.597C554.731 159.519 554.993 159.417 555.196 159.292C555.391 159.167 555.536 159.023 555.63 158.859C555.731 158.695 555.782 158.515 555.782 158.32ZM577.368 161.8L575.095 149.12H578.071L579.02 156.655L579.173 157.863L579.395 156.655L580.766 149.12H582.946L584.317 156.62L584.54 157.827L584.704 156.597L585.641 149.12H588.63L586.356 161.8H583.497L582.102 155.027L581.833 153.738L581.575 155.027L580.227 161.8H577.368ZM591.712 149.12H598.614V159.152H602.048V161.8H591.712V159.152H595.321V151.78H591.712V149.12ZM595.087 145.874C595.087 145.624 595.13 145.394 595.216 145.183C595.309 144.964 595.438 144.777 595.602 144.62C595.766 144.472 595.962 144.355 596.188 144.269C596.423 144.183 596.68 144.14 596.962 144.14C597.54 144.14 597.997 144.304 598.333 144.632C598.677 144.952 598.848 145.366 598.848 145.874C598.848 146.382 598.677 146.8 598.333 147.128C597.997 147.448 597.54 147.609 596.962 147.609C596.68 147.609 596.423 147.566 596.188 147.48C595.962 147.394 595.766 147.273 595.602 147.116C595.438 146.968 595.309 146.788 595.216 146.577C595.13 146.359 595.087 146.124 595.087 145.874ZM611.235 146.015V149.12H615.97V151.523H611.235V156.972C611.235 157.433 611.286 157.82 611.388 158.132C611.497 158.437 611.649 158.679 611.845 158.859C612.04 159.046 612.274 159.179 612.548 159.257C612.829 159.335 613.141 159.374 613.485 159.374C613.735 159.374 613.989 159.363 614.247 159.339C614.513 159.316 614.766 159.284 615.009 159.245C615.243 159.214 615.462 159.179 615.665 159.14C615.876 159.101 616.055 159.062 616.204 159.023L616.52 161.261C616.294 161.394 616.028 161.511 615.723 161.613C615.419 161.706 615.095 161.784 614.751 161.847C614.407 161.909 614.048 161.956 613.673 161.988C613.305 162.027 612.942 162.046 612.583 162.046C611.888 162.046 611.255 161.956 610.684 161.777C610.122 161.589 609.641 161.3 609.243 160.909C608.837 160.527 608.524 160.038 608.305 159.445C608.087 158.843 607.977 158.124 607.977 157.288V151.523H605.083V149.12H607.977V146.015H611.235ZM622.93 150.866C623.095 150.624 623.274 150.402 623.47 150.198C623.673 149.988 623.884 149.804 624.102 149.648C624.438 149.405 624.809 149.218 625.216 149.085C625.622 148.952 626.052 148.886 626.505 148.886C627.169 148.886 627.778 148.988 628.333 149.191C628.888 149.386 629.364 149.695 629.763 150.116C630.161 150.538 630.47 151.081 630.688 151.745C630.915 152.402 631.028 153.195 631.028 154.124V161.8H627.77V154.101C627.77 153.648 627.712 153.257 627.595 152.929C627.485 152.601 627.325 152.335 627.114 152.132C626.903 151.929 626.649 151.78 626.352 151.687C626.055 151.585 625.72 151.534 625.345 151.534C625.055 151.534 624.786 151.562 624.536 151.616C624.286 151.671 624.059 151.753 623.856 151.863C623.669 151.956 623.497 152.07 623.341 152.202C623.192 152.335 623.055 152.484 622.93 152.648V161.8H619.673V143.8H622.93V150.866ZM657.243 157.347C657.243 157.042 657.188 156.757 657.079 156.491C656.977 156.226 656.802 155.976 656.552 155.741C656.294 155.515 655.958 155.308 655.544 155.12C655.138 154.925 654.63 154.745 654.02 154.581C653.075 154.323 652.243 154.011 651.524 153.644C650.813 153.277 650.231 152.874 649.778 152.437C649.325 151.999 648.981 151.515 648.747 150.984C648.52 150.452 648.407 149.874 648.407 149.249C648.407 148.53 648.559 147.878 648.864 147.292C649.169 146.706 649.591 146.206 650.13 145.792C650.669 145.378 651.305 145.062 652.04 144.843C652.774 144.616 653.571 144.503 654.43 144.503C655.321 144.503 656.134 144.632 656.868 144.89C657.61 145.148 658.247 145.507 658.778 145.968C659.309 146.437 659.723 146.991 660.02 147.632C660.317 148.273 660.466 148.976 660.466 149.741H657.255C657.239 149.359 657.169 149.007 657.044 148.687C656.927 148.366 656.751 148.089 656.516 147.855C656.274 147.628 655.973 147.452 655.614 147.327C655.263 147.195 654.848 147.128 654.372 147.128C653.934 147.128 653.544 147.183 653.2 147.292C652.864 147.394 652.579 147.538 652.345 147.726C652.11 147.921 651.93 148.152 651.805 148.417C651.688 148.675 651.63 148.956 651.63 149.261C651.63 149.581 651.708 149.87 651.864 150.128C652.028 150.386 652.263 150.616 652.567 150.82C652.872 151.03 653.239 151.222 653.669 151.394C654.106 151.566 654.598 151.726 655.145 151.874C655.731 152.038 656.29 152.238 656.821 152.472C657.352 152.706 657.841 152.976 658.286 153.28C658.958 153.78 659.493 154.363 659.891 155.027C660.29 155.691 660.489 156.456 660.489 157.323C660.489 158.073 660.337 158.741 660.032 159.327C659.735 159.905 659.321 160.394 658.79 160.792C658.259 161.198 657.626 161.507 656.891 161.718C656.157 161.921 655.356 162.023 654.489 162.023C653.638 162.023 652.794 161.898 651.958 161.648C651.13 161.39 650.407 161.015 649.79 160.523C649.204 160.038 648.739 159.468 648.395 158.812C648.059 158.155 647.891 157.386 647.891 156.503H651.126C651.141 157.019 651.231 157.46 651.395 157.827C651.559 158.195 651.79 158.495 652.087 158.73C652.376 158.964 652.723 159.136 653.13 159.245C653.544 159.355 653.997 159.409 654.489 159.409C654.927 159.409 655.313 159.359 655.649 159.257C655.993 159.155 656.282 159.015 656.516 158.835C656.751 158.655 656.93 158.441 657.055 158.191C657.18 157.933 657.243 157.652 657.243 157.347ZM662.47 155.343C662.47 154.421 662.602 153.57 662.868 152.788C663.134 151.999 663.524 151.316 664.04 150.738C664.548 150.159 665.169 149.706 665.903 149.378C666.645 149.05 667.493 148.886 668.446 148.886C669.399 148.886 670.247 149.05 670.989 149.378C671.731 149.706 672.36 150.159 672.876 150.738C673.384 151.316 673.77 151.999 674.036 152.788C674.302 153.57 674.434 154.421 674.434 155.343V155.589C674.434 156.519 674.302 157.378 674.036 158.167C673.77 158.948 673.384 159.628 672.876 160.206C672.368 160.784 671.743 161.238 671.001 161.566C670.259 161.886 669.415 162.046 668.47 162.046C667.516 162.046 666.665 161.886 665.915 161.566C665.173 161.238 664.548 160.784 664.04 160.206C663.524 159.628 663.134 158.948 662.868 158.167C662.602 157.378 662.47 156.519 662.47 155.589V155.343ZM665.727 155.589C665.727 156.12 665.778 156.62 665.88 157.089C665.981 157.55 666.141 157.952 666.36 158.296C666.579 158.648 666.86 158.925 667.204 159.128C667.555 159.331 667.977 159.433 668.47 159.433C668.946 159.433 669.356 159.331 669.7 159.128C670.044 158.925 670.325 158.648 670.544 158.296C670.755 157.952 670.911 157.55 671.013 157.089C671.114 156.62 671.165 156.12 671.165 155.589V155.343C671.165 154.827 671.114 154.339 671.013 153.878C670.911 153.417 670.755 153.011 670.544 152.659C670.325 152.308 670.044 152.03 669.7 151.827C669.356 151.624 668.938 151.523 668.446 151.523C667.962 151.523 667.548 151.624 667.204 151.827C666.86 152.03 666.579 152.308 666.36 152.659C666.141 153.011 665.981 153.417 665.88 153.878C665.778 154.339 665.727 154.827 665.727 155.343V155.589ZM680.481 161.8V151.523H677.153V149.12H680.481V148.429C680.481 147.593 680.614 146.855 680.88 146.214C681.145 145.573 681.524 145.034 682.016 144.597C682.509 144.159 683.106 143.831 683.809 143.613C684.513 143.386 685.298 143.273 686.165 143.273C686.438 143.273 686.7 143.284 686.95 143.308C687.208 143.323 687.458 143.347 687.7 143.378C687.942 143.409 688.184 143.445 688.427 143.484C688.677 143.523 688.934 143.566 689.2 143.613L688.989 146.167C688.692 146.105 688.356 146.05 687.981 146.003C687.606 145.956 687.165 145.933 686.657 145.933C686.11 145.933 685.645 145.995 685.263 146.12C684.88 146.245 684.575 146.429 684.348 146.671C684.145 146.874 683.993 147.124 683.891 147.421C683.798 147.718 683.751 148.054 683.751 148.429V149.12H688.321V151.523H683.751V161.8H680.481ZM697.72 146.015V149.12H702.454V151.523H697.72V156.972C697.72 157.433 697.77 157.82 697.872 158.132C697.981 158.437 698.134 158.679 698.329 158.859C698.524 159.046 698.759 159.179 699.032 159.257C699.313 159.335 699.626 159.374 699.97 159.374C700.22 159.374 700.473 159.363 700.731 159.339C700.997 159.316 701.251 159.284 701.493 159.245C701.727 159.214 701.946 159.179 702.149 159.14C702.36 159.101 702.54 159.062 702.688 159.023L703.005 161.261C702.778 161.394 702.513 161.511 702.208 161.613C701.903 161.706 701.579 161.784 701.235 161.847C700.891 161.909 700.532 161.956 700.157 161.988C699.79 162.027 699.427 162.046 699.067 162.046C698.372 162.046 697.739 161.956 697.169 161.777C696.606 161.589 696.126 161.3 695.727 160.909C695.321 160.527 695.009 160.038 694.79 159.445C694.571 158.843 694.462 158.124 694.462 157.288V151.523H691.567V149.12H694.462V146.015H697.72ZM707.095 161.8L704.821 149.12H707.798L708.747 156.655L708.899 157.863L709.122 156.655L710.493 149.12H712.673L714.044 156.62L714.266 157.827L714.43 156.597L715.368 149.12H718.356L716.083 161.8H713.223L711.829 155.027L711.559 153.738L711.302 155.027L709.954 161.8H707.095ZM728.493 161.8C728.415 161.644 728.348 161.464 728.294 161.261C728.239 161.058 728.192 160.843 728.153 160.616C727.973 160.812 727.766 160.995 727.532 161.167C727.298 161.339 727.04 161.488 726.759 161.613C726.47 161.745 726.153 161.847 725.809 161.917C725.466 161.995 725.095 162.034 724.696 162.034C724.048 162.034 723.45 161.941 722.903 161.753C722.364 161.566 721.899 161.304 721.509 160.968C721.118 160.632 720.813 160.234 720.595 159.773C720.376 159.304 720.266 158.796 720.266 158.249C720.266 157.546 720.403 156.925 720.677 156.386C720.95 155.839 721.36 155.39 721.907 155.038C722.399 154.718 723.005 154.476 723.723 154.312C724.45 154.14 725.282 154.054 726.22 154.054H728.036V153.304C728.036 153.007 727.989 152.741 727.895 152.507C727.802 152.265 727.661 152.058 727.473 151.886C727.278 151.706 727.032 151.57 726.735 151.476C726.446 151.374 726.106 151.323 725.716 151.323C725.372 151.323 725.075 151.366 724.825 151.452C724.575 151.53 724.372 151.644 724.216 151.792C724.075 151.925 723.97 152.085 723.899 152.273C723.837 152.46 723.805 152.667 723.805 152.894H720.548C720.548 152.355 720.665 151.843 720.899 151.359C721.141 150.874 721.493 150.448 721.954 150.081C722.407 149.714 722.962 149.425 723.618 149.214C724.282 148.995 725.04 148.886 725.891 148.886C726.657 148.886 727.368 148.98 728.024 149.167C728.688 149.355 729.263 149.632 729.747 149.999C730.231 150.366 730.61 150.831 730.884 151.394C731.157 151.948 731.294 152.593 731.294 153.327V158.765C731.294 159.445 731.337 160.007 731.423 160.452C731.509 160.898 731.634 161.28 731.798 161.601V161.8H728.493ZM725.388 159.515C725.716 159.515 726.02 159.476 726.302 159.398C726.583 159.32 726.837 159.218 727.063 159.093C727.29 158.968 727.485 158.827 727.649 158.671C727.813 158.507 727.942 158.343 728.036 158.179V155.999H726.372C725.864 155.999 725.43 156.05 725.071 156.152C724.712 156.245 724.419 156.378 724.192 156.55C723.966 156.73 723.798 156.945 723.688 157.195C723.579 157.437 723.524 157.702 723.524 157.991C723.524 158.218 723.563 158.429 723.641 158.624C723.727 158.812 723.848 158.972 724.005 159.105C724.161 159.23 724.352 159.331 724.579 159.409C724.813 159.48 725.083 159.515 725.388 159.515ZM744.091 148.886C744.583 148.886 745.036 148.921 745.45 148.991C745.872 149.054 746.212 149.124 746.47 149.202L745.989 152.448C745.559 152.347 745.118 152.273 744.665 152.226C744.22 152.171 743.794 152.144 743.388 152.144C742.966 152.144 742.583 152.183 742.239 152.261C741.903 152.331 741.602 152.441 741.337 152.589C741.016 152.761 740.743 152.98 740.516 153.245C740.29 153.511 740.102 153.823 739.954 154.183V161.8H736.696V149.12H739.731L739.86 150.913L739.884 151.195C740.399 150.476 741.016 149.913 741.735 149.507C742.454 149.093 743.239 148.886 744.091 148.886ZM755.552 162.034C754.575 162.034 753.688 161.874 752.891 161.554C752.095 161.234 751.411 160.796 750.841 160.241C750.27 159.695 749.829 159.05 749.516 158.308C749.212 157.558 749.059 156.757 749.059 155.905V155.437C749.059 154.468 749.212 153.585 749.516 152.788C749.821 151.984 750.247 151.292 750.794 150.714C751.341 150.136 751.989 149.687 752.739 149.366C753.489 149.046 754.305 148.886 755.188 148.886C756.102 148.886 756.915 149.038 757.626 149.343C758.345 149.64 758.954 150.062 759.454 150.609C759.946 151.155 760.321 151.816 760.579 152.589C760.837 153.355 760.966 154.202 760.966 155.132V156.515H752.364V156.55C752.473 157.058 752.614 157.468 752.786 157.78C752.958 158.085 753.188 158.363 753.477 158.613C753.774 158.87 754.114 159.07 754.497 159.21C754.88 159.351 755.298 159.421 755.751 159.421C756.391 159.421 757.013 159.3 757.614 159.058C758.216 158.816 758.704 158.452 759.079 157.968L760.708 159.726C760.294 160.312 759.638 160.843 758.739 161.32C757.841 161.796 756.778 162.034 755.552 162.034ZM755.165 151.523C754.798 151.523 754.462 151.589 754.157 151.722C753.852 151.847 753.587 152.03 753.36 152.273C753.126 152.515 752.93 152.804 752.774 153.14C752.618 153.476 752.501 153.851 752.423 154.265H757.766V154.007C757.766 153.663 757.704 153.339 757.579 153.034C757.454 152.73 757.282 152.464 757.063 152.238C756.845 152.019 756.575 151.847 756.255 151.722C755.942 151.589 755.579 151.523 755.165 151.523Z" fill="white"/>

<!-- TODO Add the animation -->
<!-- 
<g transform="translate(764,-14.5) scale(.431111,.440249) translate(-13.9,56.6)">

<path fill="#e0e0e0" stroke="#e0e0e0" stroke-linejoin="round" d="M-50.7 4h278.2c10 0 9 0 9 0l41 40c0 0 1 0-9 0h-358c-9.9 0-9 0-9 0l38.8-40c0 0-0.9 0 9 0Z" stroke-width="10" transform="translate(225,339.9) scale(0,1) translate(-89.5,-24)" style="animation: 10s linear infinite both a0_t;"/><rect width="83" height="22" stroke="#fb422d" fill="#e0e0e0" rx="2" stroke-width="0" transform="translate(225,348.9) scale(0,1) translate(-41.5,-11)" style="animation: 10s linear infinite both a1_t;"/><g style="animation: 10s linear infinite both a3_t;"><rect width="400" height="334" stroke="#e0e0e0" fill="none" stroke-width="30" stroke-miterlimit="1" rx="10" opacity="0" transform="translate(225,198.9) rotate(-90) translate(-200,-167)" style="animation: 10s linear infinite both a2_t, 10s linear infinite both a2_o, 10s linear infinite both a2_sw, 10s linear infinite both a2_w, 10s linear infinite both a2_h;"/></g><use width="168.5" height="302" xlink:href="#Symbol-2" opacity="0" transform="translate(227.8,199.9) translate(-84.2,-151)" style="animation: 10s linear infinite both a4_t, 10s linear infinite both a4_w, 10s linear infinite both a4_h;"/><rect width="16" height="8" stroke="#fb422d" fill="#e0e0e0" stroke-width="0" rx="2" opacity="0" transform="translate(225,328.9) translate(-8,-4)" style="animation: 10s linear infinite both a5_t, 10s linear infinite both a5_o, 10s linear infinite both a5_w;"/><rect width="16" height="8" stroke="#fb422d" fill="#e0e0e0" stroke-width="0" rx="2" opacity="0" transform="translate(225,328.9) translate(-8,-4)" style="animation: 10s linear infinite both a6_t, 10s linear infinite both a6_o, 10s linear infinite both a6_w;"/><g transform="translate(225,198.9) scale(1.5,1.5) translate(-42.3,-93)" style="animation: 10s linear infinite both a7_t;"><g transform="translate(42.3,93) scale(5.352,6.9) translate(-16,60)"><g transform="translate(-34.9,-125.8)"><g transform="translate(24,5)"><path d="M33 46.5c0 3.1-0.8 5.5-2.2 7.4c-1.4 1.9-3.3 3.6-5.4 5.4c-2.2 1.7-4.5 3.6-6.3 6.2c-1.8 2.5-3.1 5.5-3.1 9.5h4.7c0-3.1 .9-5.4 2.2-7.3c1.4-1.9 3.3-3.5 5.5-5.3c2.1-1.8 4.4-3.7 6.2-6.2c1.8-2.6 3.1-5.6 3.1-9.7Z" fill="#e96020"/><path d="M20.4 70.7c-0.6 0-1 .5-1 1.1c0 .7 .4 1.2 1 1.2h12.9c.7 0 1.2-0.5 1.2-1.2c0-0.6-0.5-1.1-1.2-1.1Z" fill="#2d323b"/><path d="M21.8 66.6c-0.7 0-1 .6-1 1.2c0 .6 .3 1 .9 1h10.3c.6 0 1.1-0.5 1.1-1.1c0-0.6-0.5-1.1-1.1-1.1Z" fill="#2d323b"/><path d="M21.8 53c-0.7 0-1.2 .5-1.1 1.1c0 .6 .4 1.1 1.1 1.1h10.2c.6 0 .9-0.6 .9-1.2c0-0.6-0.3-1-0.9-1Z" fill="#2d323b"/><path d="M20.4 48.8c-0.6 0-1.2 .5-1.2 1.1c0 .7 .6 1.2 1.2 1.2h12.9c.7 0 1-0.5 1-1.1c0-0.7-0.3-1.2-1-1.2Z" fill="#2d323b"/><path d="M16 46.5c0 4.1 1.3 7.1 3.1 9.7c1.8 2.5 4.1 4.4 6.3 6.2c2.1 1.8 4 3.6 5.4 5.5c1.4 1.9 2.2 4 2.2 7.1h4.7c0-4-1.3-7.1-3.1-9.6c-1.8-2.5-4.1-4.4-6.2-6.2c-2.2-1.8-4.1-3.4-5.5-5.3c-1.3-1.9-2.2-4.3-2.2-7.4Z" fill="#00a8d6"/></g></g></g></g></g> -->
</svg>